# xmcd
#
# Track frame offsets: 
#        150
#        25814
#        53822
#        69950
#        98875
#        120225
#        136999
#        163564
#        178261
#        194222
#        218840
#        246397
#        283617
#        304944
#        329785
#
# Disc length: 4582 seconds
#
# Revision: 2
# Processed by: cddbd v1.5.2PL0 Copyright (c) Steve Scherf et al.
# Submitted via: ExactAudioCopy v1.0b3
#
DISCID=e511e40f
DTITLE=Various Artist - FG Electro Fever 2014 - CD 4 (Electro Collect
DTITLE=ors)
DYEAR=2014
DGENRE=Club
TTITLE0=Tiga - You Gonna Want Me (12 Inch Dance Mix)
TTITLE1=MD X-Spress - God Made Me Phunky
TTITLE2=Junior Jack - E-Samba (Radio Edit)
TTITLE3=Afrojack and R3hab - Prutataaa
TTITLE4=Josh Wink - Higher State of Consciousness
TTITLE5=Mr. Fingers - Can You Feel It
TTITLE6=Avicii - Sweet Dreams (Avicii Swede Dreams Mix)
TTITLE7=Muttonheads - To You
TTITLE8=John Dahlbäck - Blink
TTITLE9=Nicky Romero - Like Home
TTITLE10=Sebastien - Take Your Pills
TTITLE11=Pizeta - Klezmer (Original)
TTITLE12=Swayzak - Make Up Your Mind
TTITLE13=Isolee - Beau Mot Plage (Freeform Reform Parts I and II)
TTITLE14=Jaydee - Plastic Dreams (Original Mix)
EXTD=
EXTT0=
EXTT1=
EXTT2=
EXTT3=
EXTT4=
EXTT5=
EXTT6=
EXTT7=
EXTT8=
EXTT9=
EXTT10=
EXTT11=
EXTT12=
EXTT13=
EXTT14=
PLAYORDER=
